{
  "accessors": [
    {
      "bufferView": 2,
      "componentType": 5126,
      "count": 6015,
      "max": [
        1.0,
        1.0,
        1.0
      ],
      "min": [
        -1.0,
        -1.0,
        -1.0580999851226807
      ],
      "type": "VEC3"
    },
    {
      "bufferView": 2,
      "byteOffset": 72180,
      "componentType": 5126,
      "count": 6015,
      "max": [
        1.0,
        0.999941885471344,
        1.0
      ],
      "min": [
        -1.0,
        -1.0,
        -1.0
      ],
      "type": "VEC3"
    },
    {
      "bufferView": 0,
      "componentType": 5125,
      "count": 12576,
      "type": "SCALAR"
    },
    {
      "bufferView": 2,
      "byteOffset": 144360,
      "componentType": 5126,
      "count": 4,
      "max": [
        0.8958699703216553,
        -0.05925000086426735,
        0.489300012588501
      ],
      "min": [
        -0.8958699703216553,
        -0.05925000086426735,
        -0.5287299752235413
      ],
      "type": "VEC3"
    },
    {
      "bufferView": 2,
      "byteOffset": 144408,
      "componentType": 5126,
      "count": 4,
      "max": [
        0.0,
        1.0,
        0.0
      ],
      "min": [
        0.0,
        1.0,
        0.0
      ],
      "type": "VEC3"
    },
    {
      "bufferView": 1,
      "componentType": 5126,
      "count": 4,
      "max": [
        1.131019949913025,
        0.8926500082015991
      ],
      "min": [
        -0.13101999461650848,
        0.17558999359607697
      ],
      "type": "VEC2"
    },
    {
      "bufferView": 0,
      "byteOffset": 50304,
      "componentType": 5125,
      "count": 6,
      "type": "SCALAR"
    },
    {
      "bufferView": 2,
      "byteOffset": 144456,
      "componentType": 5126,
      "count": 5440,
      "max": [
        1.0,
        1.0,
        1.0
      ],
      "min": [
        -1.0,
        -1.0,
        -1.0027400255203247
      ],
      "type": "VEC3"
    },
    {
      "bufferView": 2,
      "byteOffset": 209736,
      "componentType": 5126,
      "count": 5440,
      "max": [
        1.0,
        0.999941885471344,
        1.0
      ],
      "min": [
        -1.0,
        -1.0,
        -1.0
      ],
      "type": "VEC3"
    },
    {
      "bufferView": 0,
      "byteOffset": 50328,
      "componentType": 5125,
      "count": 11328,
      "type": "SCALAR"
    },
    {
      "bufferView": 2,
      "byteOffset": 275016,
      "componentType": 5126,
      "count": 5414,
      "max": [
        -0.4911099970340729,
        0.9935200214385986,
        1.0
      ],
      "min": [
        -2.19173002243042,
        -0.9935200214385986,
        -1.0
      ],
      "type": "VEC3"
    },
    {
      "bufferView": 2,
      "byteOffset": 339984,
      "componentType": 5126,
      "count": 5414,
      "max": [
        0.9930970072746277,
        0.9996969103813171,
        1.0
      ],
      "min": [
        -0.9996969103813171,
        -0.9996969103813171,
        -1.0
      ],
      "type": "VEC3"
    },
    {
      "bufferView": 0,
      "byteOffset": 95640,
      "componentType": 5125,
      "count": 14160,
      "type": "SCALAR"
    },
    {
      "bufferView": 2,
      "byteOffset": 404952,
      "componentType": 5126,
      "count": 5414,
      "max": [
        -0.4911099970340729,
        0.9935200214385986,
        1.0
      ],
      "min": [
        -2.19173002243042,
        -0.9935200214385986,
        -1.0
      ],
      "type": "VEC3"
    },
    {
      "bufferView": 2,
      "byteOffset": 469920,
      "componentType": 5126,
      "count": 5414,
      "max": [
        0.9930970072746277,
        0.9996969103813171,
        1.0
      ],
      "min": [
        -0.9996969103813171,
        -0.9996969103813171,
        -1.0
      ],
      "type": "VEC3"
    },
    {
      "bufferView": 0,
      "byteOffset": 152280,
      "componentType": 5125,
      "count": 14160,
      "type": "SCALAR"
    },
    {
      "bufferView": 2,
      "byteOffset": 534888,
      "componentType": 5126,
      "count": 65533,
      "max": [
        -0.09431000053882599,
        -36.47085952758789,
        -0.5765100121498108
      ],
      "min": [
        -2.0482800006866455,
        -39.333580017089844,
        -2.4802799224853516
      ],
      "type": "VEC3"
    },
    {
      "bufferView": 2,
      "byteOffset": 1321284,
      "componentType": 5126,
      "count": 65533,
      "max": [
        1.0,
        1.0,
        0.9999986886978149
      ],
      "min": [
        -0.9999972581863403,
        0.0,
        -0.9999982118606567
      ],
      "type": "VEC3"
    },
    {
      "bufferView": 0,
      "byteOffset": 208920,
      "componentType": 5125,
      "count": 188460,
      "type": "SCALAR"
    },
    {
      "bufferView": 2,
      "byteOffset": 2107680,
      "componentType": 5126,
      "count": 65532,
      "max": [
        -0.09939000010490417,
        -36.47085952758789,
        -0.6295899748802185
      ],
      "min": [
        -2.0482800006866455,
        -39.333580017089844,
        -2.344860076904297
      ],
      "type": "VEC3"
    },
    {
      "bufferView": 2,
      "byteOffset": 2894064,
      "componentType": 5126,
      "count": 65532,
      "max": [
        0.9999972581863403,
        1.0,
        1.0
      ],
      "min": [
        -0.9999972581863403,
        0.000109999964479357,
        -1.0
      ],
      "type": "VEC3"
    },
    {
      "bufferView": 0,
      "byteOffset": 962760,
      "componentType": 5125,
      "count": 162765,
      "type": "SCALAR"
    },
    {
      "bufferView": 2,
      "byteOffset": 3680448,
      "componentType": 5126,
      "count": 65532,
      "max": [
        -0.09939000010490417,
        -36.47085952758789,
        -0.6249899864196777
      ],
      "min": [
        -2.0482800006866455,
        -38.88628005981445,
        -2.3886399269104004
      ],
      "type": "VEC3"
    },
    {
      "bufferView": 2,
      "byteOffset": 4466832,
      "componentType": 5126,
      "count": 65532,
      "max": [
        1.0,
        1.0,
        1.0
      ],
      "min": [
        -0.9999972581863403,
        0.0,
        -1.0
      ],
      "type": "VEC3"
    },
    {
      "bufferView": 0,
      "byteOffset": 1613820,
      "componentType": 5125,
      "count": 117066,
      "type": "SCALAR"
    },
    {
      "bufferView": 2,
      "byteOffset": 5253216,
      "componentType": 5126,
      "count": 36225,
      "max": [
        -0.09939000010490417,
        -36.47085952758789,
        -0.8178799748420715
      ],
      "min": [
        -2.0482800006866455,
        -39.376068115234375,
        -2.344860076904297
      ],
      "type": "VEC3"
    },
    {
      "bufferView": 2,
      "byteOffset": 5687916,
      "componentType": 5126,
      "count": 36225,
      "max": [
        0.9999986886978149,
        1.0,
        1.0
      ],
      "min": [
        -0.9999972581863403,
        0.00010999989899573848,
        -0.9999998807907104
      ],
      "type": "VEC3"
    },
    {
      "bufferView": 0,
      "byteOffset": 2082084,
      "componentType": 5125,
      "count": 67005,
      "type": "SCALAR"
    }
  ],
  "asset": {
    "extras": {
      "author": "Zeus666 (https://sketchfab.com/Zeus666)",
      "license": "CC-BY-4.0 (http://creativecommons.org/licenses/by/4.0/)",
      "source": "https://sketchfab.com/3d-models/laptop-14d699c42d8449cb96bad68349551207",
      "title": "Laptop"
    },
    "generator": "Sketchfab-12.66.0",
    "version": "2.0"
  },
  "bufferViews": [
    {
      "buffer": 0,
      "byteLength": 2350104,
      "name": "floatBufferViews",
      "target": 34963
    },
    {
      "buffer": 0,
      "byteLength": 32,
      "byteOffset": 2350104,
      "byteStride": 8,
      "name": "floatBufferViews",
      "target": 34962
    },
    {
      "buffer": 0,
      "byteLength": 6122616,
      "byteOffset": 2350136,
      "byteStride": 12,
      "name": "floatBufferViews",
      "target": 34962
    }
  ],
  "buffers": [
    {
      "byteLength": 8472752,
      "uri": "scene.bin"
    }
  ],
  "extensionsRequired": [
    "KHR_materials_pbrSpecularGlossiness"
  ],
  "extensionsUsed": [
    "KHR_materials_pbrSpecularGlossiness"
  ],
  "materials": [
    {
      "doubleSided": true,
      "extensions": {
        "KHR_materials_pbrSpecularGlossiness": {
          "diffuseFactor": [
            1.0,
            1.0,
            1.0,
            1.0
          ],
          "glossinessFactor": 0.7999999970197678,
          "specularFactor": [
            0.1826331913471222,
            0.1826331913471222,
            0.1826331913471222
          ]
        }
      },
      "name": "roller"
    },
    {
      "doubleSided": true,
      "extensions": {
        "KHR_materials_pbrSpecularGlossiness": {
          "diffuseFactor": [
            1.0,
            1.0,
            1.0,
            1.0
          ],
          "glossinessFactor": 0.4,
          "specularFactor": [
            1.0,
            1.0,
            1.0
          ]
        }
      },
      "name": "KEYBOARD"
    },
    {
      "doubleSided": true,
      "emissiveFactor": [
        0.05599999511241904,
        0.05599999511241904,
        0.05599999511241904
      ],
      "extensions": {
        "KHR_materials_pbrSpecularGlossiness": {
          "diffuseFactor": [
            1.0,
            1.0,
            1.0,
            1.0
          ],
          "glossinessFactor": 0.4,
          "specularFactor": [
            1.0,
            1.0,
            1.0
          ]
        }
      },
      "name": "Material.001"
    }
  ],
  "meshes": [
    {
      "name": "Cube_0",
      "primitives": [
        {
          "attributes": {
            "NORMAL": 1,
            "POSITION": 0
          },
          "indices": 2,
          "material": 1,
          "mode": 4
        }
      ]
    },
    {
      "name": "display_0",
      "primitives": [
        {
          "attributes": {
            "NORMAL": 4,
            "POSITION": 3,
            "TEXCOORD_0": 5
          },
          "indices": 6,
          "material": 2,
          "mode": 4
        }
      ]
    },
    {
      "name": "Cube.001_0",
      "primitives": [
        {
          "attributes": {
            "NORMAL": 8,
            "POSITION": 7
          },
          "indices": 9,
          "material": 1,
          "mode": 4
        }
      ]
    },
    {
      "name": "Cylinder_0",
      "primitives": [
        {
          "attributes": {
            "NORMAL": 11,
            "POSITION": 10
          },
          "indices": 12,
          "material": 0,
          "mode": 4
        }
      ]
    },
    {
      "name": "Cylinder.001_0",
      "primitives": [
        {
          "attributes": {
            "NORMAL": 14,
            "POSITION": 13
          },
          "indices": 15,
          "material": 0,
          "mode": 4
        }
      ]
    },
    {
      "name": "keys_0",
      "primitives": [
        {
          "attributes": {
            "NORMAL": 17,
            "POSITION": 16
          },
          "indices": 18,
          "material": 0,
          "mode": 4
        }
      ]
    },
    {
      "name": "keys_0",
      "primitives": [
        {
          "attributes": {
            "NORMAL": 20,
            "POSITION": 19
          },
          "indices": 21,
          "material": 0,
          "mode": 4
        }
      ]
    },
    {
      "name": "keys_0",
      "primitives": [
        {
          "attributes": {
            "NORMAL": 23,
            "POSITION": 22
          },
          "indices": 24,
          "material": 0,
          "mode": 4
        }
      ]
    },
    {
      "name": "keys_0",
      "primitives": [
        {
          "attributes": {
            "NORMAL": 26,
            "POSITION": 25
          },
          "indices": 27,
          "material": 0,
          "mode": 4
        }
      ]
    }
  ],
  "nodes": [
    {
      "children": [
        1
      ],
      "matrix": [
        1.0,
        0.0,
        0.0,
        0.0,
        0.0,
        2.220446049250313e-16,
        -1.0,
        0.0,
        0.0,
        1.0,
        2.220446049250313e-16,
        0.0,
        0.0,
        0.0,
        0.0,
        1.0
      ],
      "name": "Sketchfab_model"
    },
    {
      "children": [
        2,
        4,
        6,
        8,
        10,
        12,
        14
      ],
      "name": "Root"
    },
    {
      "children": [
        3
      ],
      "matrix": [
        -0.29086000000000006,
        0.9551700000000001,
        -0.05519000000000001,
        0.0,
        -0.7711,
        -0.19988000000000003,
        0.6045200000000001,
        0.0,
        0.5663900000000001,
        0.21839000000000003,
        0.7946700000000001,
        0.0,
        -0.01614,
        2.04506,
        0.24991000000000005,
        1.0
      ],
      "name": "Lamp"
    },
    {
      "name": "Lamp"
    },
    {
      "children": [
        5
      ],
      "matrix": [
        0.91736,
        0.0,
        0.0,
        0.0,
        0.0,
        0.012550000000000002,
        -0.003360000000000001,
        0.0,
        -0.0,
        0.13377,
        0.49925,
        0.0,
        -0.0,
        -0.011010000000000002,
        0.9293,
        1.0
      ],
      "name": "Cube"
    },
    {
      "mesh": 0,
      "name": "Cube_0"
    },
    {
      "children": [
        7
      ],
      "matrix": [
        1.0,
        0.0,
        0.0,
        0.0,
        0.0,
        0.9659300000000001,
        -0.25882000000000005,
        0.0,
        -0.0,
        0.25882000000000005,
        0.9659300000000001,
        0.0,
        -0.0,
        0.042440000000000005,
        0.9347900000000001,
        1.0
      ],
      "name": "display"
    },
    {
      "mesh": 1,
      "name": "display_0"
    },
    {
      "children": [
        9
      ],
      "matrix": [
        0.91736,
        0.0,
        0.0,
        0.0,
        0.0,
        0.0,
        -0.013000000000000003,
        0.0,
        -0.0,
        0.51687,
        0.0,
        0.0,
        -0.0,
        -0.6457800000000001,
        0.40427,
        1.0
      ],
      "name": "Cube.001"
    },
    {
      "mesh": 2,
      "name": "Cube.001_0"
    },
    {
      "children": [
        11
      ],
      "matrix": [
        -0.0,
        0.0,
        0.013060000000000002,
        0.0,
        0.0,
        -0.013060000000000002,
        0.0,
        0.0,
        -0.08724000000000003,
        0.0,
        -0.0,
        0.0,
        0.45726,
        -0.14779000000000003,
        0.42976000000000003,
        1.0
      ],
      "name": "Cylinder"
    },
    {
      "mesh": 3,
      "name": "Cylinder_0"
    },
    {
      "children": [
        13
      ],
      "matrix": [
        -0.0,
        0.0,
        0.013060000000000002,
        0.0,
        0.0,
        -0.013060000000000002,
        0.0,
        0.0,
        -0.08724000000000003,
        0.0,
        -0.0,
        0.0,
        -0.43757000000000007,
        -0.14779000000000003,
        0.42976000000000003,
        1.0
      ],
      "name": "Cylinder.001"
    },
    {
      "mesh": 4,
      "name": "Cylinder.001_0"
    },
    {
      "children": [
        15,
        16,
        17,
        18
      ],
      "matrix": [
        0.8969200000000002,
        0.0,
        0.0,
        0.0,
        0.0,
        0.0,
        -0.004400000000000001,
        0.0,
        -0.0,
        0.40583,
        0.0,
        0.0,
        0.9607800000000001,
        0.02747000000000001,
        0.2531,
        1.0
      ],
      "name": "keys"
    },
    {
      "mesh": 5,
      "name": "keys_0"
    },
    {
      "mesh": 6,
      "name": "keys_0"
    },
    {
      "mesh": 7,
      "name": "keys_0"
    },
    {
      "mesh": 8,
      "name": "keys_0"
    }
  ],
  "scene": 0,
  "scenes": [
    {
      "name": "Sketchfab_Scene",
      "nodes": [
        0
      ]
    }
  ]
}
